<?xml version="1.0" encoding="UTF-8" standalone="no"?>
<!-- Generator: Adobe Illustrator 19.0.0, SVG Export Plug-In . SVG Version: 6.00 Build 0)  -->

<svg
   xmlns:dc="http://purl.org/dc/elements/1.1/"
   xmlns:cc="http://creativecommons.org/ns#"
   xmlns:rdf="http://www.w3.org/1999/02/22-rdf-syntax-ns#"
   xmlns:svg="http://www.w3.org/2000/svg"
   xmlns="http://www.w3.org/2000/svg"
   xmlns:sodipodi="http://sodipodi.sourceforge.net/DTD/sodipodi-0.dtd"
   xmlns:inkscape="http://www.inkscape.org/namespaces/inkscape"
   version="1.1"
   id="Capa_1"
   x="0px"
   y="0px"
   viewBox="0 0 512 512"
   style="enable-background:new 0 0 512 512;"
   xml:space="preserve"
   sodipodi:docname="cp-logo.svg"
   inkscape:version="0.92.3 (2405546, 2018-03-11)"><metadata
   id="metadata95"><rdf:RDF><cc:Work
       rdf:about=""><dc:format>image/svg+xml</dc:format><dc:type
         rdf:resource="http://purl.org/dc/dcmitype/StillImage" /><dc:title></dc:title></cc:Work></rdf:RDF></metadata><defs
   id="defs93">
	
	
	
	
	
	

		
		
		
		
		
		
		
	</defs><sodipodi:namedview
   pagecolor="#ffffff"
   bordercolor="#666666"
   borderopacity="1"
   objecttolerance="10"
   gridtolerance="10"
   guidetolerance="10"
   inkscape:pageopacity="0"
   inkscape:pageshadow="2"
   inkscape:window-width="1366"
   inkscape:window-height="711"
   id="namedview91"
   showgrid="false"
   inkscape:zoom="0.4609375"
   inkscape:cx="-483.17847"
   inkscape:cy="1023.855"
   inkscape:window-x="0"
   inkscape:window-y="27"
   inkscape:window-maximized="1"
   inkscape:current-layer="Capa_1" />

<ellipse
   style="fill:#FFD00D;"
   cx="80.38"
   cy="257.24"
   id="circle4"
   r="34.503" />









<ellipse
   style="fill:#EF9614;"
   cx="407.9"
   cy="93.1"
   id="circle40"
   r="93.1" />
<ellipse
   style="fill:#FFD00D;"
   cx="407.9"
   cy="93.1"
   id="circle42"
   r="66.17" />








<g
   id="g60">
</g>
<g
   id="g62">
</g>
<g
   id="g64">
</g>
<g
   id="g66">
</g>
<g
   id="g68">
</g>
<g
   id="g70">
</g>
<g
   id="g72">
</g>
<g
   id="g74">
</g>
<g
   id="g76">
</g>
<g
   id="g78">
</g>
<g
   id="g80">
</g>
<g
   id="g82">
</g>
<g
   id="g84">
</g>
<g
   id="g86">
</g>
<g
   id="g88">
</g>
<g
   id="g1359"
   inkscape:export-xdpi="96.276955"
   inkscape:export-ydpi="96.276955"
   transform="matrix(1.8413777,0,0,1.8674184,242.62097,216.82195)"><g
     style="opacity:0.85"
     id="g1345"><g
       id="g1332"
       transform="translate(-340)"><path
         inkscape:connector-curvature="0"
         style="fill:#558b2f;fill-opacity:1;stroke-width:0.64537758"
         d="m 40.797253,-412.82565 c 0,85.30777 -67.668658,154.82593 -152.320673,157.91548 -84.65201,-3.08955 -152.32067,-72.60771 -152.32067,-157.91548 0,-85.30776 67.66866,-154.82592 152.32067,-157.91547 84.652015,3.08955 152.320673,72.60771 152.320673,157.91547 z"
         id="path1189" /><path
         inkscape:connector-curvature="0"
         style="fill:#f2f9fa;fill-opacity:1;stroke-width:0.64537758"
         d="m -10.307792,-529.11924 -223.540978,223.27983 c -7.59408,-8.23666 -14.31639,-17.28602 -20.03778,-26.99327 L -37.326178,-549.1336 c 9.718612,5.70825 18.772096,12.42271 27.018386,20.01436 z"
         id="path1191" /><path
         inkscape:connector-curvature="0"
         style="fill:#f2f9fa;fill-opacity:1;stroke-width:0.64537758"
         d="m 29.883995,-470.59834 -205.143425,204.90376 c -14.52303,-5.7018 -27.99993,-13.48696 -40.05618,-22.98782 L 6.8757467,-510.61417 c 9.5119703,12.04216 17.3062323,25.50332 23.0082483,40.01583 z"
         id="path1193" /><path
         inkscape:connector-curvature="0"
         style="fill:#ffffff;fill-opacity:0.94117647;stroke-width:0.64537758"
         d="m -30.487633,-499.65561 -173.856597,173.65348 c -4.96585,-4.9536 -9.51197,-10.33936 -13.57377,-16.08631 -5.59224,-7.91416 -10.27396,-16.51846 -13.88373,-25.65812 -5.34685,-13.51276 -8.35607,-28.20587 -8.53688,-43.56979 -0.0129,-0.5031 -0.0129,-1.0062 -0.0129,-1.5093 0,-67.81535 55.03769,-122.79519 122.93882,-122.79519 0.50369,0 1.01383,0 1.51752,0.0129 15.38188,0.1806 30.085723,3.19275 43.614289,8.5269 9.150347,3.61201 17.764717,8.28181 25.68813,13.86751 5.753677,4.06351 11.139273,8.59786 16.105128,13.55792 z"
         id="path1197" /></g><path
       inkscape:connector-curvature="0"
       d="m -390.22343,-340.48009 c -4.74437,0 -9.20524,-1.8447 -12.55994,-5.19548 l -30.12188,-30.0867 h -64.10926 v 17.54402 c 0,9.78079 -7.96603,17.73751 -17.75826,17.73751 -9.79223,0 -17.75826,-7.95672 -17.75826,-17.73751 v -17.54402 h -8.74933 c -8.01188,0 -14.52949,-6.50999 -14.52949,-14.51251 0,-8.00252 6.51761,-14.51251 14.52949,-14.51251 h 8.74933 v -27.29126 h -8.74933 c -8.01188,0 -14.52949,-6.50999 -14.52949,-14.51251 0,-8.00252 6.51761,-14.51251 14.52949,-14.51251 h 8.74933 v -21.51464 c 0,-7.1995 4.30331,-13.63209 10.96234,-16.38753 6.66096,-2.7548 14.25633,-1.24549 19.35263,3.84485 l 34.0965,34.05667 h 29.4587 c 2.67471,0 4.84316,2.16591 4.84316,4.83751 0,2.67159 -2.16845,4.8375 -4.84316,4.8375 h -31.46441 c -1.28441,0 -2.51651,-0.50955 -3.42444,-1.41707 l -35.51523,-35.47373 c -2.31697,-2.31362 -5.76982,-2.9999 -8.79712,-1.74731 -3.02665,1.25194 -4.98264,4.17638 -4.98264,7.44846 v 26.35215 c 0,2.67159 -2.16845,4.8375 -4.84317,4.8375 h -13.59249 c -2.67084,0 -4.84316,2.16978 -4.84316,4.8375 0,2.66773 2.17232,4.83751 4.84316,4.83751 h 13.59249 c 2.67472,0 4.84317,2.16591 4.84317,4.8375 v 36.96627 c 0,2.67159 -2.16845,4.8375 -4.84317,4.8375 h -13.59249 c -2.67084,0 -4.84316,2.16979 -4.84316,4.83751 0,2.66772 2.17232,4.8375 4.84316,4.8375 h 13.59249 c 2.67472,0 4.84317,2.16591 4.84317,4.83751 v 22.38151 c 0,4.44599 3.62074,8.06251 8.07193,8.06251 4.45119,0 8.07194,-3.61652 8.07194,-8.06251 v -22.38151 c 0,-2.6716 2.16844,-4.83751 4.84316,-4.83751 h 70.95878 c 1.28441,0 2.51651,0.50955 3.42444,1.41707 l 31.53996,31.50311 c 1.52527,1.52285 3.55294,2.36199 5.71041,2.36199 1.06356,0 2.10193,-0.2064 3.08671,-0.61404 3.0273,-1.25194 4.98264,-4.17637 4.98264,-7.44846 v -22.38152 c 0,-2.67159 2.16845,-4.8375 4.84317,-4.8375 h 13.59249 c 2.6702,0 4.84316,-2.16979 4.84316,-4.83751 0,-2.66772 -2.17296,-4.8375 -4.84316,-4.8375 h -13.59249 c -2.67472,0 -4.84317,-2.16591 -4.84317,-4.83751 v -36.96626 c 0,-2.6716 2.16845,-4.83751 4.84317,-4.83751 h 13.59249 c 2.6702,0 4.84316,-2.16978 4.84316,-4.8375 0,-2.66772 -2.17296,-4.83751 -4.84316,-4.83751 h -13.59249 c -2.67472,0 -4.84317,-2.16591 -4.84317,-4.8375 v -26.35214 c 0,-4.44599 -3.62074,-8.06251 -8.07193,-8.06251 -4.45119,0 -8.07194,3.61652 -8.07194,8.06251 v 26.35214 c 0,2.67159 -2.16844,4.8375 -4.84316,4.8375 h -16.14452 c -2.67472,0 -4.84316,-2.16591 -4.84316,-4.8375 0,-2.67159 2.16844,-4.8375 4.84316,-4.8375 h 11.30136 v -21.51464 c 0,-9.78079 7.96603,-17.73751 17.75826,-17.73751 9.79222,0 17.75826,7.95672 17.75826,17.73751 v 21.51464 h 8.74933 c 8.01188,0 14.52949,6.50999 14.52949,14.51251 0,8.00252 -6.51761,14.51251 -14.52949,14.51251 h -8.74933 v 27.29126 h 8.74933 c 8.01188,0 14.52949,6.50999 14.52949,14.51251 0,8.00252 -6.51761,14.51251 -14.52949,14.51251 h -8.74933 v 17.54402 c 0,7.19949 -4.30331,13.63208 -10.96234,16.38753 -2.16586,0.8959 -4.45119,1.35063 -6.79269,1.35063 z m -12.91769,-54.63219 h -10.60071 c -1.2844,0 -2.51651,-0.50955 -3.42444,-1.41707 l -37.01015,-36.96627 c -1.38514,-1.38352 -1.79972,-3.46429 -1.05,-5.27159 0.74973,-1.80793 2.51587,-2.98635 4.47444,-2.98635 h 47.61086 c 2.67472,0 4.84317,2.16591 4.84317,4.83751 v 36.96626 c 0,2.6716 -2.16845,4.83751 -4.84317,4.83751 z m -8.59499,-9.67501 h 3.75183 v -27.29126 h -31.07502 z m -38.53543,9.67501 h -51.58548 c -2.67472,0 -4.84317,-2.16591 -4.84317,-4.83751 v -36.96626 c 0,-2.6716 2.16845,-4.83751 4.84317,-4.83751 h 14.57598 c 1.2844,0 2.5165,0.50955 3.42443,1.41707 l 37.00951,36.96627 c 1.38514,1.38352 1.79972,3.46429 1.05,5.27159 -0.74972,1.80793 -2.51586,2.98635 -4.47444,2.98635 z m -46.74232,-9.67501 h 35.04964 l -27.32318,-27.29126 h -7.72646 z"
       id="path1209"
       style="stroke-width:0.64537758" /><path
       inkscape:connector-curvature="0"
       d="m -451.41464,-249.96237 c -43.55294,0 -84.49962,-16.94094 -115.29567,-47.70166 -30.79605,-30.76072 -47.75745,-71.65891 -47.75745,-115.16097 0,-43.50206 -15.58162,-108.26531 15.21508,-139.02538 30.7967,-30.76008 104.2851,-23.83725 147.83804,-23.83725 43.55294,0 84.49961,16.94094 115.29566,47.70166 30.79606,30.76072 47.75745,71.65891 47.75745,115.16097 0,43.50206 -16.96075,84.4009 -47.75745,115.16097 -30.79669,30.76007 -71.74272,47.70166 -115.29566,47.70166 z m 0,-316.05025 c -40.9654,0 -79.47952,15.93409 -108.44679,44.86752 -28.96728,28.93344 -44.92001,67.40256 -44.92001,108.3201 0,40.91754 15.95273,79.38666 44.92001,108.32009 28.96727,28.93344 67.48139,44.86753 108.44679,44.86753 40.9654,0 79.47951,-15.93409 108.44679,-44.86753 28.96727,-28.93343 44.92,-67.40255 44.92,-108.32009 0,-40.91754 -15.95273,-79.38666 -44.92,-108.3201 -28.96728,-28.93343 -67.48139,-44.86752 -108.44679,-44.86752 z"
       id="path1203"
       style="fill:#030303;fill-opacity:1;stroke-width:0.64537758"
       sodipodi:nodetypes="ssssssssssssssssss" /><path
       inkscape:connector-curvature="0"
       d="m -458.35328,-285.3858 c -0.091,0 -0.1821,-0.003 -0.2738,-0.008 -67.6086,-3.75906 -120.56825,-59.73414 -120.56825,-127.43146 0,-70.37601 57.32237,-127.63141 127.78069,-127.63141 70.45896,0 127.78134,57.2554 127.78134,127.63141 0,64.83416 -48.55303,119.33799 -112.93867,126.77936 -2.66051,0.30315 -5.06013,-1.59573 -5.36816,-4.24926 -0.30738,-2.65418 1.5976,-5.05422 4.25424,-5.36189 59.49856,-6.87699 104.36626,-57.24831 104.36626,-117.16886 0,-65.0412 -52.97709,-117.9564 -118.09501,-117.9564 -65.11728,0 -118.09437,52.9152 -118.09437,117.9564 0,62.5657 48.94241,114.29732 111.42114,117.77194 2.67084,0.14835 4.7153,2.43165 4.56613,5.09873 -0.14336,2.57677 -2.28016,4.56918 -4.83154,4.56918 z"
       id="path1211"
       style="stroke-width:0.64537758" /><path
       style="fill:#feffff;fill-opacity:1;stroke:#000000;stroke-width:1px;stroke-linecap:butt;stroke-linejoin:miter;stroke-opacity:1"
       d="m -606.91525,-540.20339 3.79661,-5.9661 5.42372,-5.9661 2.71187,-2.1695 50.98305,17.89831 -13.55932,10.30508 -8.67797,8.67797 -9.22034,11.38983 -8.67796,13.01695 z"
       id="path1296"
       inkscape:connector-curvature="0" /><path
       style="fill:#558b2f;fill-opacity:1;stroke:#000000;stroke-width:1px;stroke-linecap:butt;stroke-linejoin:miter;stroke-opacity:1"
       d="m -606.91525,-540.20339 -3.25424,7.05085 -2.16949,7.59322 -2.71187,10.30508 -1.62712,10.84746 -0.54237,9.22034 V -480 l 1.08475,15.18644 1.62711,15.72881 0.54238,4.33899 3.79661,11.9322 4.33898,10.84746 0.54237,-8.67797 1.08475,-8.13559 1.62712,-9.22034 2.16949,-8.67797 3.25424,-10.30508 3.79661,-10.30509 2.71186,-5.9661 6.50848,-9.76271 v 0 z"
       id="path1300"
       inkscape:connector-curvature="0" /><path
       style="fill:#558b2f;fill-opacity:1;stroke:#000000;stroke-width:1px;stroke-linecap:butt;stroke-linejoin:miter;stroke-opacity:1"
       d="m -594.98305,-554.30509 9.73833,-6.38788 9.97141,-4.21867 11.12195,-4.21868 14.9571,-3.06812 12.65602,-1.91758 14.57359,-1.15054 h 16.49116 13.42305 l 9.20437,0.38351 10.35492,1.91758 8.05383,2.68461 7.67031,3.06812 -13.03953,0.76703 -12.2725,2.3011 -15.34062,3.83515 -13.80656,4.9857 -13.42304,6.13625 -11.88898,6.90328 -7.46176,5.87745 z"
       id="path1302"
       inkscape:connector-curvature="0" /></g></g></svg>